<svg width="32" height="32" viewBox="0 0 32 32" fill="none" xmlns="http://www.w3.org/2000/svg">
  <circle cx="16" cy="16" r="14" stroke="url(#gradient1)" stroke-width="2" fill="none"/>
  <g transform="translate(16, 16)">
    <rect x="-1" y="-10" width="2" height="6" fill="url(#gradient2)" transform="rotate(0)" rx="1"/>
    <rect x="-1" y="-10" width="2" height="6" fill="url(#gradient2)" transform="rotate(45)" rx="1"/>
    <rect x="-1" y="-10" width="2" height="6" fill="url(#gradient2)" transform="rotate(90)" rx="1"/>
    <rect x="-1" y="-10" width="2" height="6" fill="url(#gradient2)" transform="rotate(135)" rx="1"/>
    <rect x="-1" y="-10" width="2" height="6" fill="url(#gradient2)" transform="rotate(180)" rx="1"/>
    <rect x="-1" y="-10" width="2" height="6" fill="url(#gradient2)" transform="rotate(225)" rx="1"/>
    <rect x="-1" y="-10" width="2" height="6" fill="url(#gradient2)" transform="rotate(270)" rx="1"/>
    <rect x="-1" y="-10" width="2" height="6" fill="url(#gradient2)" transform="rotate(315)" rx="1"/>
  </g>
  <circle cx="16" cy="16" r="6" fill="url(#gradient1)"/>
  <line x1="16" y1="16" x2="16" y2="11" stroke="white" stroke-width="1.5" stroke-linecap="round"/>
  <line x1="16" y1="16" x2="20" y2="18" stroke="white" stroke-width="1.5" stroke-linecap="round"/>
  <defs>
    <linearGradient id="gradient1" x1="0%" y1="0%" x2="100%" y2="100%">
      <stop offset="0%" stop-color="#3B82F6"/>
      <stop offset="100%" stop-color="#8B5CF6"/>
    </linearGradient>
    <linearGradient id="gradient2" x1="0%" y1="0%" x2="100%" y2="100%">
      <stop offset="0%" stop-color="#60A5FA"/>
      <stop offset="100%" stop-color="#A78BFA"/>
    </linearGradient>
  </defs>
</svg>